<svg xmlns="http://www.w3.org/2000/svg" viewBox="0 0 120 120" role="img" aria-labelledby="title desc">
  <title id="title">Tastevia Mark</title>
  <desc id="desc">Rounded emblem with fork-and-spoon monogram forming the letter T.</desc>
  <defs>
    <linearGradient id="g1" x1="0%" y1="0%" x2="100%" y2="100%">
      <stop offset="0" stop-color="#ff7a1a"/>
      <stop offset="1" stop-color="#ff3c6f"/>
    </linearGradient>
    <filter id="shadow" x="-20%" y="-20%" width="140%" height="140%">
      <feDropShadow dx="0" dy="6" stdDeviation="10" flood-color="#ff5a30" flood-opacity="0.24"/>
    </filter>
  </defs>
  <rect x="14" y="14" width="92" height="92" rx="26" fill="url(#g1)" filter="url(#shadow)"/>
  <path fill="#fff" d="M38 36c0-3.3 2.7-6 6-6h32c3.3 0 6 2.7 6 6s-2.7 6-6 6H64v42c0 3.9-3.1 7-7 7s-7-3.1-7-7V42H44c-3.3 0-6-2.7-6-6Z"/>
  <path fill="#ffe9dc" d="M56 42h8v20c0 4.4-3.6 8-8 8s-8-3.6-8-8V42Z"/>
  <path fill="#fff" d="M70 42h6v34c0 2.8-2.2 5-5 5s-5-2.2-5-5V42Z"/>
</svg>
